0
SECTION
2
HEADER
9
$INSUNITS
70
4
9
$ACADVER
1
AC1014
9
$HANDSEED
5
FFFF
0
ENDSEC
0
SECTION
2
TABLES
0
TABLE
2
VPORT
5
8
100
AcDbSymbolTable
0
ENDTAB
0
TABLE
2
LTYPE
5
5
100
AcDbSymbolTable
0
LTYPE
5
14
100
AcDbSymbolTableRecord
100
AcDbLinetypeTableRecord
2
BYBLOCK
70
0
0
LTYPE
5
15
100
AcDbSymbolTableRecord
100
AcDbLinetypeTableRecord
2
BYLAYER
70
0
0
ENDTAB
0
TABLE
2
LAYER
5
2
100
AcDbSymbolTable
70
2
0
LAYER
5
50
100
AcDbSymbolTableRecord
100
AcDbLayerTableRecord
2
0
70
0
6
CONTINUOUS
0
ENDTAB
0
TABLE
2
STYLE
5
3
100
AcDbSymbolTable
70
1
0
STYLE
5
11
100
AcDbSymbolTableRecord
100
AcDbTextStyleTableRecord
2
STANDARD
70
0
0
ENDTAB
0
TABLE
2
VIEW
5
6
100
AcDbSymbolTable
70
0
0
ENDTAB
0
TABLE
2
UCS
5
7
100
AcDbSymbolTable
70
0
0
ENDTAB
0
TABLE
2
APPID
5
9
100
AcDbSymbolTable
70
2
0
APPID
5
12
100
AcDbSymbolTableRecord
100
AcDbRegAppTableRecord
2
ACAD
70
0
0
ENDTAB
0
TABLE
2
DIMSTYLE
5
A
100
AcDbSymbolTable
70
1
0
ENDTAB
0
TABLE
2
BLOCK_RECORD
5
1
100
AcDbSymbolTable
70
1
0
BLOCK_RECORD
5
1F
100
AcDbSymbolTableRecord
100
AcDbBlockTableRecord
2
*MODEL_SPACE
0
BLOCK_RECORD
5
1B
100
AcDbSymbolTableRecord
100
AcDbBlockTableRecord
2
*PAPER_SPACE
0
ENDTAB
0
ENDSEC
0
SECTION
2
BLOCKS
0
BLOCK
5
20
100
AcDbEntity
100
AcDbBlockBegin
2
*MODEL_SPACE
0
ENDBLK
5
21
100
AcDbEntity
100
AcDbBlockEnd
0
BLOCK
5
1C
100
AcDbEntity
100
AcDbBlockBegin
2
*PAPER_SPACE
0
ENDBLK
5
1D
100
AcDbEntity
100
AcDbBlockEnd
0
ENDSEC
0
SECTION
2
ENTITIES
0
LWPOLYLINE
5
100
100
AcDbEntity
8
0
100
AcDbPolyline
90
4
70
1
43
0.0
10
-35
20
161
10
-35
20
174.00000000000003
10
-53.799999999999997
20
174.00000000000003
10
-53.799999999999997
20
161
0
CIRCLE
5
101
100
AcDbEntity
8
0
100
AcDbCircle
10
-32.105646089274096
20
180.03511880633079
30
0
40
1.5000000000000213
210
0
220
-0
230
1
0
CIRCLE
5
102
100
AcDbEntity
8
0
100
AcDbCircle
10
-42.030570505665949
20
180.03511880633079
30
0
40
1.5000000000000213
210
0
220
-0
230
1
0
CIRCLE
5
103
100
AcDbEntity
8
0
100
AcDbCircle
10
-22.038937038362363
20
180.03511880633079
30
0
40
1.5000000000000213
210
0
220
-0
230
1
0
CIRCLE
5
104
100
AcDbEntity
8
0
100
AcDbCircle
10
-52.026387239317735
20
180.03511880633079
30
0
40
1.5000000000000213
210
0
220
-0
230
1
0
CIRCLE
5
105
100
AcDbEntity
8
0
100
AcDbCircle
10
-12.124655467921334
20
180.03511880633079
30
0
40
1.5000000000000213
210
0
220
-0
230
1
0
CIRCLE
5
106
100
AcDbEntity
8
0
100
AcDbCircle
10
-16.350000000000009
20
105.50000000000004
30
0
40
2
210
0
220
0
230
1
0
CIRCLE
5
107
100
AcDbEntity
8
0
100
AcDbCircle
10
-16.350000000000009
20
94.850000000000051
30
0
40
7.0000000000000009
210
0
220
-0
230
1
0
CIRCLE
5
108
100
AcDbEntity
8
0
100
AcDbCircle
10
-7.3000000000000087
20
115.30000000000004
30
0
40
1.5000000000000002
210
0
220
-0
230
1
0
CIRCLE
5
109
100
AcDbEntity
8
0
100
AcDbCircle
10
-25.400000000000009
20
115.30000000000004
30
0
40
1.5000000000000002
210
0
220
-0
230
1
0
LWPOLYLINE
5
110
100
AcDbEntity
8
0
100
AcDbPolyline
90
96
70
1
43
0.0
10
-58.999999999999993
20
180
10
-58.999999999999993
20
190.00000000000003
10
-55.000000044703476
20
190.00000000000003
10
-55.000000044703476
20
187.00000000000003
10
-45.000000044703476
20
187.00000000000003
10
-45.000000044703476
20
190.00000000000003
10
-35.000000044703476
20
190.00000000000003
10
-35.000000044703476
20
187.00000000000003
10
-25.000000044703476
20
187.00000000000003
10
-25.000000044703476
20
190.00000000000003
10
-15.000000044703478
20
190.00000000000003
10
-15.000000044703478
20
187.00000000000003
10
-4.9999999999999929
20
187.00000000000003
10
-4.9999999999999956
20
180
10
-1.9999999999999951
20
180
10
-1.9999999999999951
20
170
10
-4.9999999999999956
20
170
10
-4.9999999999999956
20
160
10
-1.9999999999999951
20
160
10
-1.9999999999999951
20
150
10
-4.9999999999999956
20
150
10
-4.9999999999999956
20
140
10
-1.9999999999999951
20
140
10
-1.9999999999999951
20
130
10
-4.9999999999999956
20
130
10
-4.9999999999999956
20
120
10
-1.9999999999999951
20
120
10
-1.9999999999999951
20
110
10
-4.9999999999999956
20
110
10
-4.9999999999999956
20
100
10
-1.9999999999999951
20
100
10
-1.9999999999999951
20
90
10
-4.9999999999999956
20
90
10
-4.9999999999999956
20
80
10
-1.9999999999999951
20
80
10
-1.9999999999999951
20
70
10
-4.9999999999999956
20
70
10
-4.9999999999999956
20
60
10
-1.9999999999999951
20
60
10
-1.9999999999999951
20
50
10
-4.9999999999999956
20
50
10
-4.9999999999999956
20
40
10
-1.9999999999999951
20
40
10
-1.9999999999999951
20
30
10
-4.9999999999999956
20
30
10
-4.9999999999999956
20
20
10
-1.9999999999999951
20
20
10
-1.9999999999999951
20
9.9999999999999982
10
-4.9999999999999956
20
9.9999999999999982
10
-4.9999999999999929
20
3.0000000000000071
10
-15.000000044703478
20
3.0000000000000004
10
-15.000000044703478
20
0
10
-25.000000044703476
20
0
10
-25.000000044703476
20
3.0000000000000004
10
-35.000000044703476
20
3.0000000000000004
10
-35.000000044703476
20
0
10
-45.000000044703476
20
0
10
-45.000000044703476
20
3.0000000000000004
10
-55.000000044703476
20
3.0000000000000004
10
-55.000000044703476
20
0
10
-58.999999999999993
20
0
10
-58.999999999999993
20
9.9999999999999982
10
-61.999999999999993
20
10
10
-61.999999999999993
20
20
10
-58.999999999999993
20
20
10
-58.999999999999993
20
30
10
-61.999999999999993
20
30
10
-61.999999999999993
20
40
10
-58.999999999999993
20
40
10
-58.999999999999993
20
50
10
-61.999999999999993
20
50
10
-61.999999999999993
20
60
10
-58.999999999999993
20
60
10
-58.999999999999993
20
70
10
-61.999999999999993
20
70
10
-61.999999999999993
20
80
10
-58.999999999999993
20
80
10
-58.999999999999993
20
90
10
-61.999999999999993
20
90
10
-61.999999999999993
20
100
10
-58.999999999999993
20
100
10
-58.999999999999993
20
110
10
-61.999999999999993
20
110
10
-61.999999999999993
20
120
10
-58.999999999999993
20
120
10
-58.999999999999993
20
130
10
-61.999999999999993
20
130
10
-61.999999999999993
20
140
10
-58.999999999999993
20
140
10
-58.999999999999993
20
150
10
-61.999999999999993
20
150
10
-61.999999999999993
20
160
10
-58.999999999999993
20
160
10
-58.999999999999993
20
170
10
-61.999999999999993
20
170
10
-61.999999999999993
20
180
0
LWPOLYLINE
5
111
100
AcDbEntity
8
0
100
AcDbPolyline
90
6
70
1
43
0.0
10
-17.501977994194345
20
202.40306655992427
10
-14.501978863370455
20
202.40078291025665
10
-13.000001599332991
20
204.99771654404756
10
-14.498023466119419
20
207.59693382750612
10
-17.498022596943322
20
207.59921747717374
10
-18.999999860980779
20
205.00228384338283
0
LWPOLYLINE
5
112
100
AcDbEntity
8
0
100
AcDbPolyline
90
6
70
1
43
0.0
10
-27.501977994194348
20
202.4030665599243
10
-24.501978863370447
20
202.40078291025668
10
-23.000001599332982
20
204.99771654404759
10
-24.498023466119427
20
207.59693382750615
10
-27.498022596943315
20
207.5992174771738
10
-28.999999860980779
20
205.00228384338286
0
LWPOLYLINE
5
113
100
AcDbEntity
8
0
100
AcDbPolyline
90
6
70
1
43
0.0
10
-37.501977994194341
20
202.4030665599243
10
-34.501978863370447
20
202.40078291025668
10
-33.000001599332982
20
204.99771654404759
10
-34.49802346611942
20
207.59693382750615
10
-37.498022596943315
20
207.5992174771738
10
-38.999999860980779
20
205.00228384338286
0
LWPOLYLINE
5
114
100
AcDbEntity
8
0
100
AcDbPolyline
90
6
70
1
43
0.0
10
-15.267949192431123
20
326.12133548252274
10
-13.535898384862229
20
329.12133548252268
10
-15.267949192431114
20
332.12133548252268
10
-18.732050807568886
20
332.12133548252268
10
-20.464101615137764
20
329.12133548252268
10
-18.732050807568886
20
326.12133548252274
0
LWPOLYLINE
5
115
100
AcDbEntity
8
0
100
AcDbPolyline
90
6
70
1
43
0.0
10
-25.267949192431118
20
326.12133548252274
10
-23.535898384862239
20
329.12133548252268
10
-25.267949192431118
20
332.12133548252268
10
-28.732050807568889
20
332.12133548252268
10
-30.464101615137757
20
329.12133548252268
10
-28.732050807568889
20
326.12133548252274
0
LWPOLYLINE
5
116
100
AcDbEntity
8
0
100
AcDbPolyline
90
6
70
1
43
0.0
10
-35.267949192431118
20
326.12133548252274
10
-33.535898384862229
20
329.12133548252268
10
-35.267949192431118
20
332.12133548252268
10
-38.732050807568889
20
332.12133548252268
10
-40.46410161513775
20
329.12133548252262
10
-38.732050807568882
20
326.12133548252268
0
LWPOLYLINE
5
117
100
AcDbEntity
8
0
100
AcDbPolyline
90
6
70
1
43
0.0
10
-48.732050807568889
20
332.12133548252268
10
-50.46410161513775
20
329.12133548252262
10
-48.732050807568882
20
326.12133548252268
10
-45.267949192431104
20
326.12133548252268
10
-43.535898384862222
20
329.12133548252262
10
-45.267949192431118
20
332.12133548252268
0
LWPOLYLINE
5
118
100
AcDbEntity
8
0
100
AcDbPolyline
90
6
70
1
43
0.0
10
-44.498023466119406
20
207.59693382750615
10
-47.498022596943308
20
207.5992174771738
10
-48.999999860980772
20
205.00228384338286
10
-47.501977994194334
20
202.4030665599243
10
-44.501978863370439
20
202.40078291025668
10
-43.000001599332975
20
204.99771654404759
0
LWPOLYLINE
5
119
100
AcDbEntity
8
0
100
AcDbPolyline
90
6
70
1
43
0.0
10
-23.980047167500015
20
271.07581585364323
10
-24.01978365415227
20
262.99300976015309
10
-17.039736486652249
20
258.91719390650991
10
-10.019952832499966
20
262.92418414635699
10
-9.9802163458477082
20
271.00699023984714
10
-16.960263513347716
20
275.08280609349026
0
LWPOLYLINE
5
120
100
AcDbEntity
8
0
100
AcDbPolyline
90
6
70
1
43
0.0
10
-31.960263513347723
20
266.42255205564589
10
-38.980047167499997
20
262.41556181579887
10
-39.019783654152278
20
254.33275572230866
10
-32.039736486652252
20
250.25693986866557
10
-25.019952832499968
20
254.26393010851262
10
-24.980216345847705
20
262.34673620200283
0
LWPOLYLINE
5
121
100
AcDbEntity
8
0
100
AcDbPolyline
90
6
70
1
43
0.0
10
-25.019952832499982
20
271.58443818420142
10
-24.980216345847698
20
279.66724427769157
10
-31.960263513347719
20
283.74306013133469
10
-38.98004716749999
20
279.73606989148755
10
-39.019783654152263
20
271.65326379799745
10
-32.039736486652252
20
267.57744794435433
0
LWPOLYLINE
5
122
100
AcDbEntity
8
0
100
AcDbPolyline
90
80
70
1
43
0.0
10
-53.99999999999995
20
195.00000000000014
10
-53.999999999999972
20
202.00000014901175
10
-57.000000044703455
20
202.00000014901175
10
-57.000000044703462
20
212.00000029802337
10
-53.999999999999979
20
212.00000029802337
10
-53.999999999999979
20
222.00000014901175
10
-57.000000044703462
20
222.00000014901175
10
-57.000000044703455
20
232.00000029802334
10
-53.999999999999972
20
232.00000029802337
10
-53.999999999999972
20
242.00000014901175
10
-57.000000044703455
20
242.00000014901173
10
-57.000000044703462
20
252.00000029802334
10
-53.999999999999979
20
252.00000029802337
10
-53.999999999999979
20
262.00000014901173
10
-57.000000044703462
20
262.00000014901173
10
-57.000000044703455
20
272.00000029802334
10
-53.999999999999972
20
272.00000029802334
10
-53.999999999999972
20
282.00000014901173
10
-57.000000044703455
20
282.00000014901173
10
-57.000000044703476
20
292.00000029802334
10
-53.999999999999993
20
292.00000029802334
10
-53.999999999999979
20
302.00000014901173
10
-57.000000044703462
20
302.00000014901173
10
-57.000000044703469
20
312.00000029802334
10
-53.999999999999986
20
312.00000029802334
10
-53.999999999999986
20
322.00000014901161
10
-57.000000044703469
20
322.00000014901161
10
-57.000000044703476
20
332.00000029802334
10
-53.999999999999993
20
332.00000029802334
10
-53.999999999999993
20
339.00000000000006
10
-50.000000044703484
20
339.00000000000006
10
-50.000000044703484
20
342.00000000000011
10
-40.000000044703469
20
342.00000000000011
10
-40.000000044703484
20
339.00000000000006
10
-30.000000044703484
20
339.00000000000006
10
-30.000000044703491
20
342.00000000000017
10
-20.000000044703491
20
342.00000000000017
10
-20.000000044703484
20
339.00000000000006
10
-10.000000044703484
20
339.00000000000006
10
-10.000000044703484
20
342.00000000000017
10
0
20
342.00000000000017
10
-4.4703485357899808e-08
20
332.00000029802339
10
2.9999999999999982
20
332.00000029802339
10
3.0000000000000071
20
322.00000014901161
10
-4.4703476476115611e-08
20
322.00000014901161
10
-4.4703485357899808e-08
20
312.00000029802334
10
2.9999999999999982
20
312.00000029802334
10
3.0000000000000071
20
302.00000014901173
10
-4.4703476476115611e-08
20
302.00000014901173
10
-4.4703476476115611e-08
20
292.00000029802334
10
3.0000000000000071
20
292.00000029802334
10
3.000000000000016
20
282.00000014901173
10
-4.4703467594331414e-08
20
282.00000014901173
10
-4.4703476476115611e-08
20
272.00000029802334
10
3.0000000000000071
20
272.00000029802334
10
3.000000000000016
20
262.00000014901173
10
-4.4703467594331414e-08
20
262.00000014901173
10
-4.4703467594331414e-08
20
252.00000029802337
10
3.000000000000016
20
252.00000029802337
10
3.0000000000000249
20
242.00000014901175
10
-4.4703458712547217e-08
20
242.00000014901175
10
-4.4703467594331414e-08
20
232.00000029802337
10
3.000000000000016
20
232.00000029802337
10
3.0000000000000249
20
222.00000014901175
10
-4.4703458712547217e-08
20
222.00000014901175
10
-4.4703458712547217e-08
20
212.00000029802337
10
3.0000000000000249
20
212.00000029802337
10
3.0000000000000338
20
202.00000014901175
10
-4.470344983076302e-08
20
202.00000014901175
10
2.6645352591003757e-14
20
192.00000000000014
10
-10.000000044703448
20
192.00000000000011
10
-10.000000044703448
20
195.00000000000011
10
-20.000000044703445
20
195.00000000000014
10
-20.000000044703455
20
192.00000000000014
10
-30.000000044703455
20
192.00000000000014
10
-30.000000044703445
20
195.00000000000014
10
-40.000000044703441
20
195.00000000000014
10
-40.000000044703441
20
192.00000000000014
10
-50.000000044703441
20
192.00000000000014
10
-50.000000044703441
20
195.00000000000014
0
LWPOLYLINE
5
123
100
AcDbEntity
8
0
100
AcDbPolyline
90
4
70
1
43
0.0
10
113.2752349956497
20
310.12804605663013
10
113.2752349956497
20
317.12804605663007
10
96.275234995649711
20
317.12804605663007
10
96.275234995649711
20
310.12804605663013
0
LWPOLYLINE
5
124
100
AcDbEntity
8
0
100
AcDbPolyline
90
4
70
1
43
0.0
10
96.157446994732425
20
224.45503299298221
10
96.157446994732425
20
217.45503299298221
10
113.15744699473242
20
217.45503299298221
10
113.15744699473242
20
224.45503299298221
0
CIRCLE
5
125
100
AcDbEntity
8
0
100
AcDbCircle
10
185.50000000000026
20
219.50000000000003
30
0
40
1.9999999999999996
210
0
220
-0
230
1
0
CIRCLE
5
126
100
AcDbEntity
8
0
100
AcDbCircle
10
145.50000000000026
20
219.5
30
0
40
1.9999999999999996
210
0
220
-0
230
1
0
CIRCLE
5
127
100
AcDbEntity
8
0
100
AcDbCircle
10
165.50000000000026
20
219.50000000000003
30
0
40
16.500000000000004
210
0
220
-0
230
1
0
CIRCLE
5
128
100
AcDbEntity
8
0
100
AcDbCircle
10
185.50000000000023
20
314.5
30
0
40
1.9999999999999996
210
0
220
-0
230
1
0
CIRCLE
5
129
100
AcDbEntity
8
0
100
AcDbCircle
10
145.50000000000023
20
314.5
30
0
40
1.9999999999999996
210
0
220
-0
230
1
0
CIRCLE
5
130
100
AcDbEntity
8
0
100
AcDbCircle
10
165.50000000000023
20
314.5
30
0
40
16.500000000000004
210
0
220
-0
230
1
0
CIRCLE
5
131
100
AcDbEntity
8
0
100
AcDbCircle
10
64.500000000000313
20
314.5
30
0
40
1.9999999999999996
210
0
220
-0
230
1
0
CIRCLE
5
132
100
AcDbEntity
8
0
100
AcDbCircle
10
24.500000000000313
20
314.5
30
0
40
1.9999999999999996
210
0
220
-0
230
1
0
CIRCLE
5
133
100
AcDbEntity
8
0
100
AcDbCircle
10
44.500000000000313
20
314.5
30
0
40
16.500000000000004
210
0
220
-0
230
1
0
CIRCLE
5
134
100
AcDbEntity
8
0
100
AcDbCircle
10
64.500000000000242
20
219.50000000000003
30
0
40
1.9999999999999996
210
0
220
-0
230
1
0
CIRCLE
5
135
100
AcDbEntity
8
0
100
AcDbCircle
10
24.500000000000242
20
219.50000000000003
30
0
40
1.9999999999999996
210
0
220
-0
230
1
0
CIRCLE
5
136
100
AcDbEntity
8
0
100
AcDbCircle
10
44.500000000000242
20
219.50000000000003
30
0
40
16.500000000000004
210
0
220
-0
230
1
0
CIRCLE
5
137
100
AcDbEntity
8
0
100
AcDbCircle
10
190.00000268220924
20
202.00000014901164
30
0
40
1.5000000000000122
210
0
220
-0
230
1
0
CIRCLE
5
138
100
AcDbEntity
8
0
100
AcDbCircle
10
140.00000268220924
20
331.9999998509885
30
0
40
1.5000000000000036
210
0
220
-0
230
1
0
CIRCLE
5
139
100
AcDbEntity
8
0
100
AcDbCircle
10
190.00000268220919
20
331.99999985098839
30
0
40
1.5000000000000036
210
0
220
-0
230
1
0
CIRCLE
5
140
100
AcDbEntity
8
0
100
AcDbCircle
10
19.999997317791269
20
331.99999985098839
30
0
40
1.5000000000000036
210
0
220
-0
230
1
0
CIRCLE
5
141
100
AcDbEntity
8
0
100
AcDbCircle
10
140.0000026822093
20
202.00000014901161
30
0
40
1.5000000000000122
210
0
220
-0
230
1
0
CIRCLE
5
142
100
AcDbEntity
8
0
100
AcDbCircle
10
19.999997317791198
20
202.00000014901164
30
0
40
1.5000000000000122
210
0
220
-0
230
1
0
CIRCLE
5
143
100
AcDbEntity
8
0
100
AcDbCircle
10
92.700000000000216
20
313.34999999999997
30
0
40
1.5000000000000002
210
0
220
-0
230
1
0
CIRCLE
5
144
100
AcDbEntity
8
0
100
AcDbCircle
10
117.30000000000021
20
313.34999999999997
30
0
40
1.5000000000000002
210
0
220
-0
230
1
0
CIRCLE
5
145
100
AcDbEntity
8
0
100
AcDbCircle
10
117.30000000000025
20
220.65000000000001
30
0
40
1.5000000000000002
210
0
220
-0
230
1
0
CIRCLE
5
146
100
AcDbEntity
8
0
100
AcDbCircle
10
92.700000000000244
20
220.65000000000001
30
0
40
1.5000000000000002
210
0
220
-0
230
1
0
CIRCLE
5
147
100
AcDbEntity
8
0
100
AcDbCircle
10
146.81428826911289
20
285.63631326602598
30
0
40
1.5000000000000002
210
-0
220
0
230
1
0
CIRCLE
5
148
100
AcDbEntity
8
0
100
AcDbCircle
10
183.55608858462574
20
285.63631326602592
30
0
40
1.5000000000000002
210
-0
220
0
230
1
0
CIRCLE
5
149
100
AcDbEntity
8
0
100
AcDbCircle
10
183.556088592827
20
248.25681239422721
30
0
40
1.5000000000000002
210
-0
220
0
230
1
0
CIRCLE
5
150
100
AcDbEntity
8
0
100
AcDbCircle
10
146.81428826936596
20
248.25681239422721
30
0
40
1.5000000000000002
210
-0
220
0
230
1
0
CIRCLE
5
151
100
AcDbEntity
8
0
100
AcDbCircle
10
134.20000000000016
20
237.55000000000007
30
0
40
1.5000000000000002
210
-0
220
0
230
1
0
CIRCLE
5
152
100
AcDbEntity
8
0
100
AcDbCircle
10
134.20000000000019
20
296.4500000000001
30
0
40
1.5000000000000002
210
-0
220
0
230
1
0
CIRCLE
5
153
100
AcDbEntity
8
0
100
AcDbCircle
10
60.900000000000318
20
296.4500000000001
30
0
40
1.5000000000000002
210
-0
220
0
230
1
0
CIRCLE
5
154
100
AcDbEntity
8
0
100
AcDbCircle
10
60.900000000000176
20
237.5500000000001
30
0
40
1.5000000000000002
210
-0
220
0
230
1
0
CIRCLE
5
155
100
AcDbEntity
8
0
100
AcDbCircle
10
23.000000000000185
20
267
30
0
40
1.4999999999999947
210
0
220
-0
230
1
0
CIRCLE
5
156
100
AcDbEntity
8
0
100
AcDbCircle
10
43.000000000000256
20
267.00000171936506
30
0
40
1.5000000000000036
210
0
220
-0
230
1
0
LWPOLYLINE
5
157
100
AcDbEntity
8
0
100
AcDbPolyline
90
132
70
1
43
0.0
10
13.000000000000256
20
322.00000014901161
10
13.000000000000256
20
332.00000029802322
10
10.000000000000284
20
332.00000029802322
10
10.000000000000284
20
342
10
20.000000000000284
20
342
10
20.000000000000284
20
338.99999999999989
10
30.000000000000284
20
338.99999999999989
10
30.000000000000284
20
342
10
40.000000000000284
20
342
10
40.000000000000284
20
339.00000000000006
10
50.000000000000284
20
339.00000000000006
10
50.000000000000284
20
342
10
60.000000000000284
20
342
10
60.000000000000284
20
339.00000000000006
10
70.000000000000284
20
339.00000000000006
10
70.000000000000284
20
342
10
80.000000000000256
20
342
10
80.000000000000256
20
339.00000000000006
10
90.000000000000171
20
339.00000000000006
10
90.000000000000171
20
342
10
100.00000000000017
20
342
10
100.00000000000017
20
339.00000000000006
10
110.00000000000017
20
339.00000000000006
10
110.00000000000017
20
342
10
120.00000000000017
20
342.00000000000011
10
120.00000000000017
20
339.00000000000011
10
130.00000000000017
20
339.00000000000011
10
130.00000000000017
20
342.00000000000011
10
140.00000000000023
20
342.00000000000011
10
140.00000000000023
20
339.00000000000011
10
150.00000000000023
20
339.00000000000011
10
150.00000000000023
20
342.00000000000011
10
160.00000000000023
20
342
10
160.00000000000023
20
339.00000000000006
10
170.00000000000023
20
339.00000000000006
10
170.00000000000023
20
342
10
180.00000000000023
20
342
10
180.00000000000023
20
339.00000000000006
10
190.00000000000023
20
339.00000000000006
10
190.00000000000023
20
342
10
200.00000000000023
20
342
10
200.00000000000023
20
332.00000029802322
10
197.0000000000002
20
332.00000029802322
10
197.0000000000002
20
322.00000014901161
10
200.00000000000023
20
322.00000014901161
10
200.00000000000023
20
312.00000029802322
10
197.0000000000002
20
312.00000029802322
10
197.0000000000002
20
302.00000014901161
10
200.00000000000023
20
302.00000014901161
10
200.00000000000023
20
292.00000029802322
10
197.0000000000002
20
292.00000029802322
10
197.0000000000002
20
282.00000014901161
10
200.00000000000023
20
282.00000014901161
10
200.00000000000023
20
272.00000029802322
10
197.0000000000002
20
272.00000029802322
10
197.00000000000028
20
262.00000014901161
10
200.00000000000028
20
262.00000014901161
10
200.00000000000028
20
252.00000029802325
10
197.00000000000028
20
252.00000029802325
10
197.00000000000028
20
242.00000014901164
10
200.00000000000028
20
242.00000014901164
10
200.00000000000026
20
232.00000029802325
10
197.00000000000023
20
232.00000029802325
10
197.00000000000023
20
222.00000014901164
10
200.00000000000026
20
222.00000014901164
10
200.00000000000026
20
212.00000029802325
10
197.00000000000023
20
212.00000029802325
10
197.00000000000023
20
202.00000014901164
10
200.00000000000026
20
202.00000014901164
10
200.00000000000026
20
192.00000000000003
10
190.00000000000026
20
192.00000000000003
10
190.00000000000026
20
195.00000000000006
10
180.00000000000026
20
195.00000000000006
10
180.00000000000026
20
192.00000000000003
10
170.00000000000026
20
192.00000000000003
10
170.00000000000026
20
195.00000000000006
10
160.00000000000026
20
195.00000000000006
10
160.00000000000026
20
192.00000000000003
10
150.00000000000026
20
192
10
150.00000000000026
20
195.00000000000003
10
140.00000000000026
20
195.00000000000003
10
140.00000000000026
20
192
10
130.00000000000023
20
192
10
130.00000000000023
20
195.00000000000003
10
120.00000000000021
20
195.00000000000003
10
120.00000000000021
20
192
10
110.00000000000021
20
192
10
110.00000000000021
20
194.99999999999997
10
100.00000000000021
20
194.99999999999997
10
100.00000000000021
20
192
10
90.000000000000213
20
192
10
90.000000000000213
20
194.99999999999997
10
80.000000000000213
20
194.99999999999997
10
80.000000000000213
20
192
10
70.000000000000213
20
192.00000000000003
10
70.000000000000213
20
195
10
60.000000000000213
20
195
10
60.000000000000213
20
192.00000000000003
10
50.000000000000213
20
192.00000000000003
10
50.000000000000213
20
195
10
40.000000000000213
20
195
10
40.000000000000213
20
192.00000000000003
10
30.000000000000213
20
192.00000000000003
10
30.000000000000213
20
195
10
20.000000000000213
20
195
10
20.000000000000213
20
192.00000000000003
10
10.000000000000213
20
192.00000000000003
10
10.000000000000213
20
202.00000014901164
10
13.000000000000185
20
202.00000014901164
10
13.000000000000185
20
212.00000029802325
10
10.000000000000213
20
212.00000029802325
10
10.000000000000213
20
222.00000014901164
10
13.000000000000185
20
222.00000014901164
10
13.000000000000185
20
232.00000029802325
10
10.000000000000213
20
232.00000029802325
10
10.000000000000213
20
242.00000014901164
10
13.000000000000185
20
242.00000014901164
10
13.000000000000185
20
252.00000029802325
10
10.000000000000213
20
252.00000029802325
10
10.000000000000213
20
262.00000014901161
10
13.000000000000185
20
262.00000014901161
10
13.000000000000256
20
272.00000029802322
10
10.000000000000284
20
272.00000029802322
10
10.000000000000284
20
282.00000014901161
10
13.000000000000256
20
282.00000014901161
10
13.000000000000256
20
292.00000029802322
10
10.000000000000284
20
292.00000029802322
10
10.000000000000284
20
302.00000014901161
10
13.000000000000256
20
302.00000014901161
10
13.000000000000256
20
312.00000029802322
10
10.000000000000284
20
312.00000029802322
10
10.000000000000284
20
322.00000014901161
0
CIRCLE
5
158
100
AcDbEntity
8
0
100
AcDbCircle
10
29.008462330898084
20
119.00000000000003
30
0
40
1.4999999999999991
210
0
220
0
230
1
0
CIRCLE
5
159
100
AcDbEntity
8
0
100
AcDbCircle
10
120.99153766910192
20
119.00000000000003
30
0
40
1.5000000000000036
210
0
220
0
230
1
0
CIRCLE
5
160
100
AcDbEntity
8
0
100
AcDbCircle
10
10.000000149011612
20
9.9999973177910206
30
0
40
1.5000000000000122
210
0
220
0
230
1
0
CIRCLE
5
161
100
AcDbEntity
8
0
100
AcDbCircle
10
139.99999985098839
20
59.999997317790985
30
0
40
1.5000000000000036
210
0
220
0
230
1
0
CIRCLE
5
162
100
AcDbEntity
8
0
100
AcDbCircle
10
139.99999985098839
20
9.9999973177910206
30
0
40
1.5000000000000036
210
0
220
0
230
1
0
CIRCLE
5
163
100
AcDbEntity
8
0
100
AcDbCircle
10
139.99999985098839
20
180.00000268220901
30
0
40
1.5000000000000036
210
0
220
0
230
1
0
CIRCLE
5
164
100
AcDbEntity
8
0
100
AcDbCircle
10
10.000000149011612
20
59.999997317790985
30
0
40
1.5000000000000122
210
0
220
0
230
1
0
CIRCLE
5
165
100
AcDbEntity
8
0
100
AcDbCircle
10
10.000000149011612
20
180.00000268220901
30
0
40
1.5000000000000122
210
0
220
0
230
1
0
CIRCLE
5
166
100
AcDbEntity
8
0
100
AcDbCircle
10
46.656854249492376
20
87
30
0
40
1.5000000000000002
210
0
220
-0
230
1
0
CIRCLE
5
167
100
AcDbEntity
8
0
100
AcDbCircle
10
74.941125496954271
20
58.715728752538098
30
0
40
1.5000000000000002
210
0
220
-0
230
1
0
CIRCLE
5
168
100
AcDbEntity
8
0
100
AcDbCircle
10
103.22539674441617
20
87
30
0
40
1.5000000000000002
210
0
220
-0
230
1
0
CIRCLE
5
169
100
AcDbEntity
8
0
100
AcDbCircle
10
74.941125496954257
20
115.28427124746187
30
0
40
1.5000000000000002
210
0
220
-0
230
1
0
CIRCLE
5
170
100
AcDbEntity
8
0
100
AcDbCircle
10
74.941125496954271
20
123.71572875253815
30
0
40
1.5000000000000002
210
0
220
-0
230
1
0
CIRCLE
5
171
100
AcDbEntity
8
0
100
AcDbCircle
10
103.22539674441617
20
152.00000000000003
30
0
40
1.5000000000000002
210
0
220
-0
230
1
0
CIRCLE
5
172
100
AcDbEntity
8
0
100
AcDbCircle
10
46.656854249492376
20
152.00000000000003
30
0
40
1.5000000000000002
210
0
220
-0
230
1
0
CIRCLE
5
173
100
AcDbEntity
8
0
100
AcDbCircle
10
74.941125496954257
20
180.2842712474619
30
0
40
1.5000000000000002
210
0
220
-0
230
1
0
CIRCLE
5
174
100
AcDbEntity
8
0
100
AcDbCircle
10
20
20
20.999999999999996
30
0
40
4.5
210
0
220
0
230
1
0
CIRCLE
5
175
100
AcDbEntity
8
0
100
AcDbCircle
10
40
20
20.999999999999996
30
0
40
4.5000000000000018
210
0
220
0
230
1
0
CIRCLE
5
176
100
AcDbEntity
8
0
100
AcDbCircle
10
40
20
41
30
0
40
4.5000000000000018
210
0
220
0
230
1
0
CIRCLE
5
177
100
AcDbEntity
8
0
100
AcDbCircle
10
20
20
41
30
0
40
4.5
210
0
220
0
230
1
0
CIRCLE
5
178
100
AcDbEntity
8
0
100
AcDbCircle
10
132.25
20
15.499999999999957
30
0
40
1.5000000000000002
210
0
220
-0
230
1
0
CIRCLE
5
179
100
AcDbEntity
8
0
100
AcDbCircle
10
132.25
20
47.999999999999964
30
0
40
1.5000000000000002
210
0
220
-0
230
1
0
CIRCLE
5
180
100
AcDbEntity
8
0
100
AcDbCircle
10
55.74999999999995
20
47.999999999999986
30
0
40
1.5000000000000002
210
0
220
-0
230
1
0
CIRCLE
5
181
100
AcDbEntity
8
0
100
AcDbCircle
10
55.749999999999893
20
15.499999999999986
30
0
40
1.5000000000000002
210
0
220
-0
230
1
0
LWPOLYLINE
5
182
100
AcDbEntity
8
0
100
AcDbPolyline
90
4
70
1
43
0.0
10
58.000000000000014
20
44.999999999999986
10
58.000000000000007
20
19.999999999999982
10
130
20
19.999999999999957
10
130.00000000000003
20
44.999999999999957
0
LWPOLYLINE
5
183
100
AcDbEntity
8
0
100
AcDbPolyline
90
132
70
1
43
0.0
10
130.00000014901161
20
187.00000000000003
10
140.00000029802322
20
187.00000000000003
10
140.00000029802322
20
190.00000000000003
10
150
20
190.00000000000003
10
150
20
180
10
147
20
180
10
147
20
170
10
150
20
170
10
150
20
160
10
147
20
160
10
147
20
150
10
150
20
150
10
150
20
140
10
147
20
140
10
147
20
130
10
150
20
130
10
150
20
120
10
147
20
120
10
147
20
110
10
150
20
110
10
150
20
100
10
147
20
100
10
147
20
90
10
150
20
90
10
150
20
80
10
147
20
80
10
147
20
70
10
150
20
70
10
150
20
60
10
147
20
60
10
147
20
50
10
150
20
50
10
150
20
40
10
147
20
40
10
147
20
30
10
150
20
30
10
150
20
20
10
147
20
20
10
147
20
9.9999999999999982
10
150
20
9.9999999999999982
10
150
20
0
10
140.00000029802322
20
0
10
140.00000029802322
20
3.0000000000000004
10
130.00000014901161
20
3.0000000000000004
10
130.00000014901161
20
-6.2577908490318114e-31
10
120.00000029802322
20
0
10
120.00000029802322
20
3.0000000000000004
10
110.00000014901161
20
3.0000000000000004
10
110.00000014901161
20
-5.2148257075265101e-31
10
100.00000029802322
20
0
10
100.00000029802322
20
3.0000000000000004
10
90.000000149011612
20
3.0000000000000004
10
90.000000149011612
20
-4.1718605660212079e-31
10
80.000000298023224
20
0
10
80.000000298023224
20
3.0000000000000004
10
70.000000149011612
20
3.0000000000000004
10
70.000000149011612
20
-3.1288954245159057e-31
10
60.000000298023224
20
0
10
60.000000298023224
20
3.0000000000000004
10
50.000000149011612
20
3.0000000000000004
10
50.000000149011612
20
-2.0859302830106039e-31
10
40.000000298023224
20
0
10
40.000000298023224
20
3.0000000000000004
10
30.000000149011612
20
3.0000000000000004
10
30.000000149011612
20
-1.042965141505302e-31
10
20.000000298023224
20
0
10
20.000000298023224
20
3.0000000000000004
10
10.000000149011612
20
3.0000000000000004
10
10.000000149011612
20
0
10
0
20
0
10
0
20
9.9999999999999982
10
3.0000000000000004
20
10
10
3.0000000000000004
20
20
10
0
20
20
10
0
20
30
10
3.0000000000000004
20
30
10
3.0000000000000004
20
40
10
5.8004478325074388e-32
20
40
10
0
20
50
10
3.0000000000000004
20
50
10
3.0000000000000004
20
60
10
1.1600895665014878e-31
20
60
10
0
20
70
10
3.0000000000000004
20
70
10
3.0000000000000004
20
80
10
1.7401343497522314e-31
20
80
10
0
20
90
10
3.0000000000000004
20
90
10
3.0000000000000004
20
100
10
2.3201791330029755e-31
20
100
10
0
20
110
10
3.0000000000000004
20
110
10
3.0000000000000004
20
120
10
2.9002239162537192e-31
20
120
10
0
20
130
10
3.0000000000000004
20
130
10
3.0000000000000004
20
140
10
3.4802686995044629e-31
20
140
10
0
20
150
10
3.0000000000000004
20
150
10
3.0000000000000004
20
160
10
4.0603134827552065e-31
20
160
10
0
20
170
10
3.0000000000000004
20
170
10
3.0000000000000004
20
180
10
4.6403582660059511e-31
20
180
10
0
20
190.00000000000003
10
10.000000149011612
20
190.00000000000003
10
10.000000149011612
20
187.00000000000003
10
20.000000298023224
20
187.00000000000003
10
20.000000298023224
20
190.00000000000003
10
30.000000149011612
20
190.00000000000003
10
30.000000149011612
20
187.00000000000003
10
40.000000298023224
20
187.00000000000003
10
40.000000298023224
20
190.00000000000003
10
50.000000149011612
20
190.00000000000003
10
50.000000149011612
20
187.00000000000003
10
60.000000298023224
20
187.00000000000003
10
60.000000298023224
20
190.00000000000003
10
70.000000149011612
20
190.00000000000003
10
70.000000149011612
20
187.00000000000003
10
80.000000298023224
20
187.00000000000003
10
80.000000298023224
20
190.00000000000003
10
90.000000149011612
20
190.00000000000003
10
90.000000149011612
20
187.00000000000003
10
100.00000029802322
20
187.00000000000003
10
100.00000029802322
20
190.00000000000003
10
110.00000014901161
20
190.00000000000003
10
110.00000014901161
20
187.00000000000003
10
120.00000029802322
20
187.00000000000003
10
120.00000029802322
20
190.00000000000003
10
130.00000014901161
20
190.00000000000003
0
CIRCLE
5
184
100
AcDbEntity
8
0
100
AcDbCircle
10
55.313708498984731
20
131.28427124746193
30
0
40
1.4999999999999991
210
0
220
-0
230
1
0
CIRCLE
5
185
100
AcDbEntity
8
0
100
AcDbCircle
10
55.313708498984717
20
171.2842712474619
30
0
40
1.4999999999999947
210
0
220
-0
230
1
0
CIRCLE
5
186
100
AcDbEntity
8
0
100
AcDbCircle
10
95.313708498984724
20
171.28427124746196
30
0
40
1.4999999999999947
210
0
220
-0
230
1
0
CIRCLE
5
187
100
AcDbEntity
8
0
100
AcDbCircle
10
95.313708498984724
20
131.28427124746193
30
0
40
1.4999999999999991
210
0
220
-0
230
1
0
LWPOLYLINE
5
188
100
AcDbEntity
8
0
100
AcDbPolyline
90
8
70
1
43
0.0
10
53.31370849898471
20
134.74837286259969
10
53.313708498984688
20
167.82016963232411
42
-1.3032253728411995
10
58.777810114122474
20
173.2842712474619
10
91.849606883846988
20
173.28427124746199
42
-1.3032253728412089
10
97.313708498984681
20
167.82016963232419
10
97.31370849898471
20
134.74837286259967
42
-1.3032253728412089
10
91.849606883846974
20
129.28427124746193
10
58.777810114122502
20
129.2842712474619
42
-1.3032253728412027
0
CIRCLE
5
189
100
AcDbEntity
8
0
100
AcDbCircle
10
55.313708498984738
20
67.284271247461888
30
0
40
1.4999999999999991
210
0
220
-0
230
1
0
CIRCLE
5
190
100
AcDbEntity
8
0
100
AcDbCircle
10
55.313708498984738
20
107.28427124746185
30
0
40
1.4999999999999947
210
0
220
-0
230
1
0
CIRCLE
5
191
100
AcDbEntity
8
0
100
AcDbCircle
10
95.313708498984724
20
107.28427124746189
30
0
40
1.4999999999999947
210
0
220
-0
230
1
0
CIRCLE
5
192
100
AcDbEntity
8
0
100
AcDbCircle
10
95.313708498984724
20
67.284271247461888
30
0
40
1.4999999999999991
210
0
220
-0
230
1
0
LWPOLYLINE
5
193
100
AcDbEntity
8
0
100
AcDbPolyline
90
8
70
1
43
0.0
10
53.313708498984766
20
70.748372862599624
10
53.31370849898471
20
103.8201696323241
42
-1.3032253728411995
10
58.777810114122502
20
109.28427124746187
10
91.849606883846945
20
109.2842712474619
42
-1.3032253728412029
10
97.313708498984752
20
103.82016963232411
10
97.31370849898471
20
70.748372862599624
42
-1.3032253728412035
10
91.849606883846988
20
65.284271247461888
10
58.777810114122467
20
65.284271247461902
42
-1.3032253728412075
0
CIRCLE
5
194
100
AcDbEntity
8
0
100
AcDbCircle
10
182.1056460892741
20
180.03511880633079
30
0
40
1.5000000000000213
210
0
220
-0
230
1
0
CIRCLE
5
195
100
AcDbEntity
8
0
100
AcDbCircle
10
192.03057050566596
20
180.03511880633079
30
0
40
1.5000000000000213
210
0
220
-0
230
1
0
CIRCLE
5
196
100
AcDbEntity
8
0
100
AcDbCircle
10
172.03893703836235
20
180.03511880633079
30
0
40
1.5000000000000213
210
0
220
-0
230
1
0
CIRCLE
5
197
100
AcDbEntity
8
0
100
AcDbCircle
10
202.02638723931773
20
180.03511880633079
30
0
40
1.5000000000000213
210
0
220
-0
230
1
0
CIRCLE
5
198
100
AcDbEntity
8
0
100
AcDbCircle
10
162.12465546792131
20
180.03511880633079
30
0
40
1.5000000000000213
210
0
220
-0
230
1
0
CIRCLE
5
199
100
AcDbEntity
8
0
100
AcDbCircle
10
157.30000000000001
20
115.30000000000004
30
0
40
1.5000000000000002
210
0
220
0
230
1
0
CIRCLE
5
200
100
AcDbEntity
8
0
100
AcDbCircle
10
175.40000000000003
20
115.30000000000004
30
0
40
1.5000000000000002
210
0
220
0
230
1
0
CIRCLE
5
201
100
AcDbEntity
8
0
100
AcDbCircle
10
166.35000000000002
20
105.50000000000004
30
0
40
2
210
0
220
0
230
1
0
CIRCLE
5
202
100
AcDbEntity
8
0
100
AcDbCircle
10
166.35000000000002
20
94.850000000000051
30
0
40
7.0000000000000009
210
0
220
0
230
1
0
LWPOLYLINE
5
203
100
AcDbEntity
8
0
100
AcDbPolyline
90
96
70
1
43
0.0
10
209
20
9.9999999999999982
10
209
20
-6.6436879361582086e-31
10
205.00000004470348
20
0
10
205.00000004470348
20
3.0000000000000004
10
195.00000004470348
20
3.0000000000000004
10
195.00000004470348
20
0
10
185.00000004470348
20
0
10
185.00000004470348
20
3.0000000000000004
10
175.00000004470348
20
3.0000000000000004
10
175.00000004470348
20
0
10
165.00000004470348
20
0
10
165.00000004470348
20
3.0000000000000004
10
155
20
3.0000000000000004
10
155
20
9.9999999999999982
10
152
20
10
10
152
20
20
10
155
20
20
10
155
20
30
10
152
20
30
10
152
20
40
10
155
20
40
10
155
20
50
10
152
20
50
10
152
20
60
10
155
20
60
10
155
20
70
10
152
20
70
10
152
20
80
10
155
20
80
10
155
20
90
10
152
20
90
10
152
20
100
10
155
20
100
10
155
20
110
10
152
20
110
10
152
20
120
10
155
20
120
10
155
20
130
10
152
20
130
10
152
20
140
10
155
20
140
10
155
20
150
10
152
20
150
10
152
20
160
10
155
20
160
10
155
20
170
10
152
20
170
10
152
20
180
10
155
20
180
10
155
20
187.00000000000003
10
165.00000004470348
20
187.00000000000003
10
165.00000004470348
20
190.00000000000003
10
175.00000004470348
20
190.00000000000003
10
175.00000004470348
20
187.00000000000003
10
185.00000004470348
20
187.00000000000003
10
185.00000004470348
20
190.00000000000003
10
195.00000004470348
20
190.00000000000003
10
195.00000004470348
20
187.00000000000003
10
205.00000004470348
20
187.00000000000003
10
205.00000004470348
20
190.00000000000003
10
209
20
190.00000000000003
10
209
20
180
10
212
20
180
10
212
20
170
10
209
20
170
10
209
20
160
10
212
20
160
10
212
20
150
10
209
20
150
10
209
20
140
10
212
20
140
10
212
20
130
10
209
20
130
10
209
20
120
10
212
20
120
10
212
20
110
10
209
20
110
10
209
20
100
10
212
20
100
10
212
20
90
10
209
20
90
10
209
20
80
10
212
20
80
10
212
20
70
10
209
20
70
10
209
20
60
10
212
20
60
10
212
20
50
10
209
20
50
10
209
20
40
10
212
20
40
10
212
20
30
10
209
20
30
10
209
20
20
10
212
20
20
10
212
20
9.9999999999999982
0
LWPOLYLINE
5
204
100
AcDbEntity
8
0
100
AcDbPolyline
90
6
70
1
43
0.0
10
85.596933827506021
20
391.49802346611949
10
85.599217477173653
20
394.49802259694337
10
83.002283843382713
20
395.99999986098084
10
80.40306655992417
20
394.50197799419442
10
80.400782910256538
20
391.50197886337054
10
82.997716544047478
20
390.00000159933307
0
LWPOLYLINE
5
205
100
AcDbEntity
8
0
100
AcDbPolyline
90
6
70
1
43
0.0
10
74.687842918415072
20
391.49802346611949
10
74.690126568082718
20
394.49802259694337
10
72.093192934291793
20
395.99999986098084
10
69.493975650833249
20
394.50197799419442
10
69.491692001165603
20
391.50197886337054
10
72.088625634956529
20
390.00000159933307
0
LWPOLYLINE
5
206
100
AcDbEntity
8
0
100
AcDbPolyline
90
6
70
1
43
0.0
10
63.778752009324158
20
391.49802346611949
10
63.781035658991783
20
394.49802259694337
10
61.184102025200879
20
395.99999986098084
10
58.584884741742329
20
394.50197799419442
10
58.582601092074682
20
391.50197886337054
10
61.179534725865608
20
390.00000159933307
0
LWPOLYLINE
5
207
100
AcDbEntity
8
0
100
AcDbPolyline
90
6
70
1
43
0.0
10
52.869661100233259
20
391.49802346611949
10
52.871944749900884
20
394.49802259694337
10
50.27501111610998
20
395.99999986098084
10
47.675793832651429
20
394.50197799419442
10
47.673510182983783
20
391.50197886337054
10
50.270443816774709
20
390.00000159933307
0
LWPOLYLINE
5
208
100
AcDbEntity
8
0
100
AcDbPolyline
90
6
70
1
43
0.0
10
41.960570191142359
20
391.49802346611949
10
41.962853840809984
20
394.49802259694337
10
39.365920207019059
20
395.99999986098084
10
36.766702923560509
20
394.50197799419442
10
36.764419273892884
20
391.50197886337054
10
39.361352907683809
20
390.00000159933307
0
LWPOLYLINE
5
209
100
AcDbEntity
8
0
100
AcDbPolyline
90
6
70
1
43
0.0
10
31.051479282051446
20
391.49802346611949
10
31.053762931719085
20
394.49802259694337
10
28.456829297928159
20
395.99999986098084
10
25.857612014469609
20
394.50197799419442
10
25.85532836480197
20
391.50197886337054
10
28.452261998592896
20
390.00000159933307
0
LWPOLYLINE
5
210
100
AcDbEntity
8
0
100
AcDbPolyline
90
6
70
1
43
0.0
10
20.142388372960536
20
391.49802346611949
10
20.144672022628171
20
394.49802259694337
10
17.547738388837246
20
395.99999986098084
10
14.948521105378694
20
394.50197799419442
10
14.946237455711069
20
391.50197886337054
10
17.543171089501985
20
390.00000159933307
0
LWPOLYLINE
5
211
100
AcDbEntity
8
0
100
AcDbPolyline
90
6
70
1
43
0.0
10
9.2332974638696275
20
391.49802346611949
10
9.2355811135372612
20
394.49802259694337
10
6.6386474797463446
20
395.99999986098084
10
4.0394301962877943
20
394.50197799419442
10
4.0371465466201517
20
391.50197886337054
10
6.6340801804110772
20
390.00000159933307
0
LWPOLYLINE
5
212
100
AcDbEntity
8
0
100
AcDbPolyline
90
6
70
1
43
0.0
10
-1.6757934452212808
20
391.49802346611949
10
-1.6735097955536471
20
394.49802259694337
10
-4.2704434293445726
20
395.99999986098084
10
-6.8696607128031228
20
394.50197799419442
10
-6.8719443624707477
20
391.50197886337054
10
-4.2750107286798311
20
390.00000159933307
0
LWPOLYLINE
5
213
100
AcDbEntity
8
0
100
AcDbPolyline
90
6
70
1
43
0.0
10
-12.584884354312189
20
391.49802346611949
10
-12.582600704644555
20
394.49802259694337
10
-15.179534338435477
20
395.99999986098084
10
-17.778751621894028
20
394.50197799419442
10
-17.78103527156166
20
391.50197886337054
10
-15.184101637770739
20
390.00000159933307
0
LWPOLYLINE
5
214
100
AcDbEntity
8
0
100
AcDbPolyline
90
6
70
1
43
0.0
10
-23.493975263403097
20
391.49802346611949
10
-23.491691613735462
20
394.49802259694337
10
-26.088625247526384
20
395.99999986098084
10
-28.687842530984934
20
394.50197799419442
10
-28.69012618065257
20
391.50197886337054
10
-26.093192546861648
20
390.00000159933307
0
LWPOLYLINE
5
215
100
AcDbEntity
8
0
100
AcDbPolyline
90
6
70
1
43
0.0
10
-34.403066172494007
20
391.49802346611949
10
-34.400782522826375
20
394.49802259694337
10
-36.997716156617294
20
395.99999986098084
10
-39.596933440075844
20
394.50197799419442
10
-39.599217089743476
20
391.50197886337054
10
-37.002283455952558
20
390.00000159933307
0
CIRCLE
5
216
100
AcDbEntity
8
0
100
AcDbCircle
10
44.999999999999972
20
381.50000000000006
30
0
40
1
210
0
220
0
230
1
0
CIRCLE
5
217
100
AcDbEntity
8
0
100
AcDbCircle
10
4.9999999999999734
20
366.50000000000006
30
0
40
1
210
0
220
0
230
1
0
CIRCLE
5
218
100
AcDbEntity
8
0
100
AcDbCircle
10
38.499999999999986
20
374.00000014901167
30
0
40
8
210
0
220
0
230
1
0
CIRCLE
5
219
100
AcDbEntity
8
0
100
AcDbCircle
10
11.499999999999968
20
374.00000014901167
30
0
40
8
210
0
220
0
230
1
0
LWPOLYLINE
5
220
100
AcDbEntity
8
0
100
AcDbPolyline
90
80
70
1
43
0.0
10
90.000000298023224
20
401.00000000000011
10
97
20
401.00000000000011
10
97
20
397.00000004470354
10
100
20
397.00000004470354
10
100
20
387.00000004470354
10
97
20
387.00000004470354
10
97
20
377.00000004470354
10
100
20
377.00000004470354
10
100
20
367.00000004470354
10
97
20
367.00000004470354
10
97
20
357.00000004470354
10
100
20
357.00000004470354
10
100
20
347
10
90.000000298023224
20
347.00000004470354
10
90.000000298023224
20
344.00000000000006
10
80.000000149011612
20
344.00000000000006
10
80.000000149011612
20
347.00000004470354
10
70.000000298023195
20
347.00000004470354
10
70.000000298023195
20
344.00000000000006
10
60.000000149011584
20
344.00000000000006
10
60.000000149011584
20
347.00000004470354
10
50.000000298023195
20
347.00000004470354
10
50.000000298023195
20
344.00000000000006
10
40.000000149011584
20
344.00000000000006
10
40.000000149011584
20
347.00000004470354
10
30.000000298023195
20
347.00000004470354
10
30.000000298023195
20
344.00000000000006
10
20.000000149011584
20
344.00000000000006
10
20.000000149011584
20
347.00000004470354
10
10.000000298023197
20
347.00000004470354
10
10.000000298023197
20
344.00000000000006
10
1.4901158529312397e-07
20
344.00000000000006
10
1.4901158529312397e-07
20
347.00000004470354
10
-9.9999997019768028
20
347.00000004470354
10
-9.9999997019768028
20
344.00000000000006
10
-19.999999850988416
20
344.00000000000006
10
-19.999999850988416
20
347.00000004470354
10
-29.999999701976805
20
347.00000004470354
10
-29.999999701976805
20
344.00000000000006
10
-39.999999850988416
20
344.00000000000006
10
-39.999999850988416
20
347.00000004470354
10
-50.000000000000028
20
347
10
-50.000000000000028
20
357.00000004470354
10
-47.000000000000028
20
357.00000004470354
10
-47.000000000000028
20
367.00000004470354
10
-50.000000000000028
20
367.00000004470354
10
-50.000000000000028
20
377.00000004470354
10
-47.000000000000028
20
377.00000004470354
10
-47.000000000000028
20
387.00000004470354
10
-50.000000000000028
20
387.00000004470354
10
-50.000000000000028
20
397.00000004470354
10
-47.000000000000028
20
397.00000004470354
10
-47.000000000000028
20
401.00000000000011
10
-39.999999850988416
20
401.00000000000011
10
-39.999999850988416
20
404.0000000447036
10
-29.999999701976805
20
404.0000000447036
10
-29.999999701976805
20
401.00000000000011
10
-19.999999850988416
20
401.00000000000011
10
-19.999999850988416
20
404.0000000447036
10
-9.9999997019768028
20
404.0000000447036
10
-9.9999997019768028
20
401.00000000000011
10
1.4901158529312397e-07
20
401.00000000000011
10
1.4901158529312397e-07
20
404.0000000447036
10
10.000000298023197
20
404.0000000447036
10
10.000000298023197
20
401.00000000000011
10
20.000000149011584
20
401.00000000000011
10
20.000000149011584
20
404.0000000447036
10
30.000000298023195
20
404.0000000447036
10
30.000000298023195
20
401.00000000000011
10
40.000000149011584
20
401.00000000000011
10
40.000000149011584
20
404.0000000447036
10
50.000000298023195
20
404.0000000447036
10
50.000000298023195
20
401.00000000000011
10
60.000000149011584
20
401.00000000000011
10
60.000000149011584
20
404.0000000447036
10
70.000000298023195
20
404.0000000447036
10
70.000000298023195
20
401.00000000000011
10
80.000000149011612
20
401.00000000000011
10
80.000000149011612
20
404.0000000447036
10
90.000000298023224
20
404.0000000447036
0
ENDSEC
0
SECTION
2
OBJECTS
0
DICTIONARY
5
C
100
AcDbDictionary
3
ACAD_GROUP
350
D
3
ACAD_MLINESTYLE
350
17
0
DICTIONARY
5
D
100
AcDbDictionary
0
DICTIONARY
5
1A
330
C
100
AcDbDictionary
0
DICTIONARY
5
17
100
AcDbDictionary
0
ENDSEC
0
EOF
